<mxfile host="app.diagrams.net" modified="2023-10-21T01:31:35.873Z" agent="Mozilla/5.0 (Macintosh; Intel Mac OS X 10_15_7) AppleWebKit/605.1.15 (KHTML, like Gecko) Version/17.0 Safari/605.1.15" etag="3epFwTaK83-jJ7d1ILPf" version="22.0.6" type="device">
  <diagram name="Page-1" id="7ksFpmn0JFveJ4g0IwRR">
    <mxGraphModel dx="2318" dy="1932" grid="1" gridSize="10" guides="1" tooltips="1" connect="1" arrows="1" fold="1" page="1" pageScale="1" pageWidth="850" pageHeight="1100" math="0" shadow="0">
      <root>
        <mxCell id="0" />
        <mxCell id="1" parent="0" />
        <mxCell id="Olhvi0J14PPZ46Zdt4Ib-2" value="&lt;div style=&quot;box-sizing:border-box;width:100%;background:#e4e4e4;padding:2px;&quot;&gt;User&lt;/div&gt;&lt;table style=&quot;width:100%;font-size:1em;&quot; cellpadding=&quot;2&quot; cellspacing=&quot;0&quot;&gt;&lt;tbody&gt;&lt;tr&gt;&lt;td&gt;PK&lt;br&gt;&lt;br&gt;&lt;/td&gt;&lt;td&gt;Id [guid] [not null]&lt;br&gt;&lt;br&gt;&lt;/td&gt;&lt;/tr&gt;&lt;tr&gt;&lt;td&gt;&amp;nbsp;&lt;br&gt;&amp;nbsp;&lt;br&gt;FK1&lt;/td&gt;&lt;td&gt;name [string] [not null]&lt;br&gt;email [string] [not null]]&lt;br&gt;RoleId [guid] [not nul]&lt;/td&gt;&lt;/tr&gt;&lt;/tbody&gt;&lt;/table&gt;" style="verticalAlign=top;align=left;overflow=fill;html=1;whiteSpace=wrap;" vertex="1" parent="1">
          <mxGeometry x="700" y="110" width="220" height="130" as="geometry" />
        </mxCell>
        <mxCell id="Olhvi0J14PPZ46Zdt4Ib-3" value="&lt;div style=&quot;box-sizing:border-box;width:100%;background:#e4e4e4;padding:2px;&quot;&gt;ProjectStatus&lt;/div&gt;&lt;table style=&quot;width:100%;font-size:1em;&quot; cellpadding=&quot;2&quot; cellspacing=&quot;0&quot;&gt;&lt;tbody&gt;&lt;tr&gt;&lt;td&gt;PK&lt;/td&gt;&lt;td&gt;Id [guid] [not null]&lt;/td&gt;&lt;/tr&gt;&lt;tr&gt;&lt;td&gt;&lt;br&gt;&lt;/td&gt;&lt;td&gt;Title [string] [not null]&lt;br&gt;Description [string] [not null]&lt;/td&gt;&lt;/tr&gt;&lt;tr&gt;&lt;td&gt;&lt;/td&gt;&lt;td&gt;&lt;br&gt;&lt;/td&gt;&lt;/tr&gt;&lt;/tbody&gt;&lt;/table&gt;" style="verticalAlign=top;align=left;overflow=fill;html=1;whiteSpace=wrap;" vertex="1" parent="1">
          <mxGeometry x="-180" y="170" width="180" height="90" as="geometry" />
        </mxCell>
        <mxCell id="Olhvi0J14PPZ46Zdt4Ib-4" value="&lt;div style=&quot;box-sizing:border-box;width:100%;background:#e4e4e4;padding:2px;&quot;&gt;Task&lt;/div&gt;&lt;table style=&quot;width:100%;font-size:1em;&quot; cellpadding=&quot;2&quot; cellspacing=&quot;0&quot;&gt;&lt;tbody&gt;&lt;tr&gt;&lt;td&gt;PK&lt;/td&gt;&lt;td&gt;Id [guid] [not null]&lt;/td&gt;&lt;/tr&gt;&lt;tr&gt;&lt;td&gt;FK1&lt;/td&gt;&lt;td&gt;ProjectID [guid] [not null]&lt;/td&gt;&lt;/tr&gt;&lt;tr&gt;&lt;td&gt;FK2&lt;/td&gt;&lt;td&gt;Assignee [guid] [not null]&lt;br&gt;&lt;/td&gt;&lt;/tr&gt;&lt;/tbody&gt;&lt;/table&gt;&lt;span style=&quot;white-space: pre;&quot;&gt;&#x9; Title [string] [not null]&lt;/span&gt;&lt;br&gt;&lt;span style=&quot;white-space: pre;&quot;&gt;&#x9;&lt;/span&gt;&amp;nbsp;&lt;span style=&quot;white-space: pre;&quot;&gt;Description [string] [null]&lt;br/&gt;FK3  StatusId [guid] [not null]&lt;br/&gt;&lt;/span&gt;" style="verticalAlign=top;align=left;overflow=fill;html=1;whiteSpace=wrap;" vertex="1" parent="1">
          <mxGeometry x="-170" y="-20" width="180" height="130" as="geometry" />
        </mxCell>
        <mxCell id="Olhvi0J14PPZ46Zdt4Ib-5" value="&lt;div style=&quot;box-sizing:border-box;width:100%;background:#e4e4e4;padding:2px;&quot;&gt;Team&lt;/div&gt;&lt;table style=&quot;width:100%;font-size:1em;&quot; cellpadding=&quot;2&quot; cellspacing=&quot;0&quot;&gt;&lt;tbody&gt;&lt;tr&gt;&lt;td&gt;PK&lt;/td&gt;&lt;td&gt;Id [guid] [not null]&lt;/td&gt;&lt;/tr&gt;&lt;tr&gt;&lt;td&gt;FK1&lt;/td&gt;&lt;td&gt;ProjectId [guid] [not null]&lt;/td&gt;&lt;/tr&gt;&lt;tr&gt;&lt;td&gt;&lt;/td&gt;&lt;td&gt;Description [string] [null]&lt;/td&gt;&lt;/tr&gt;&lt;/tbody&gt;&lt;/table&gt;" style="verticalAlign=top;align=left;overflow=fill;html=1;whiteSpace=wrap;" vertex="1" parent="1">
          <mxGeometry x="500" y="360" width="180" height="90" as="geometry" />
        </mxCell>
        <mxCell id="Olhvi0J14PPZ46Zdt4Ib-7" value="" style="edgeStyle=entityRelationEdgeStyle;fontSize=12;html=1;endArrow=ERmandOne;startArrow=ERmandOne;rounded=0;exitX=1.006;exitY=0.354;exitDx=0;exitDy=0;entryX=-0.019;entryY=0.315;entryDx=0;entryDy=0;exitPerimeter=0;entryPerimeter=0;" edge="1" parent="1" source="Olhvi0J14PPZ46Zdt4Ib-1" target="Olhvi0J14PPZ46Zdt4Ib-2">
          <mxGeometry width="100" height="100" relative="1" as="geometry">
            <mxPoint x="400" y="100" as="sourcePoint" />
            <mxPoint x="500" as="targetPoint" />
          </mxGeometry>
        </mxCell>
        <mxCell id="Olhvi0J14PPZ46Zdt4Ib-12" value="" style="edgeStyle=entityRelationEdgeStyle;fontSize=12;html=1;endArrow=none;rounded=0;entryX=0;entryY=0.25;entryDx=0;entryDy=0;exitX=1.009;exitY=0.335;exitDx=0;exitDy=0;exitPerimeter=0;startArrow=ERoneToMany;startFill=0;endFill=0;" edge="1" parent="1" source="Olhvi0J14PPZ46Zdt4Ib-4" target="Olhvi0J14PPZ46Zdt4Ib-1">
          <mxGeometry width="100" height="100" relative="1" as="geometry">
            <mxPoint x="-20" y="270" as="sourcePoint" />
            <mxPoint x="100" y="350" as="targetPoint" />
            <Array as="points">
              <mxPoint x="60" y="300" />
              <mxPoint x="60" y="290" />
            </Array>
          </mxGeometry>
        </mxCell>
        <mxCell id="Olhvi0J14PPZ46Zdt4Ib-15" value="&lt;div style=&quot;box-sizing:border-box;width:100%;background:#e4e4e4;padding:2px;&quot;&gt;UserTeams&lt;/div&gt;&lt;table style=&quot;width:100%;font-size:1em;&quot; cellpadding=&quot;2&quot; cellspacing=&quot;0&quot;&gt;&lt;tbody&gt;&lt;tr&gt;&lt;td&gt;FK1&lt;/td&gt;&lt;td&gt;UserId [guid] [not null]&lt;/td&gt;&lt;/tr&gt;&lt;tr&gt;&lt;td&gt;FK2&lt;/td&gt;&lt;td&gt;TeamId [guid] [not null]&lt;/td&gt;&lt;/tr&gt;&lt;/tbody&gt;&lt;/table&gt;" style="verticalAlign=top;align=left;overflow=fill;html=1;whiteSpace=wrap;" vertex="1" parent="1">
          <mxGeometry x="1000" y="310" width="180" height="90" as="geometry" />
        </mxCell>
        <mxCell id="Olhvi0J14PPZ46Zdt4Ib-16" value="" style="edgeStyle=entityRelationEdgeStyle;fontSize=12;html=1;endArrow=ERoneToMany;rounded=0;exitX=1;exitY=0.25;exitDx=0;exitDy=0;entryX=0;entryY=0.5;entryDx=0;entryDy=0;" edge="1" parent="1" source="Olhvi0J14PPZ46Zdt4Ib-5" target="Olhvi0J14PPZ46Zdt4Ib-15">
          <mxGeometry width="100" height="100" relative="1" as="geometry">
            <mxPoint x="50" y="-40" as="sourcePoint" />
            <mxPoint x="150" y="-140" as="targetPoint" />
          </mxGeometry>
        </mxCell>
        <mxCell id="Olhvi0J14PPZ46Zdt4Ib-17" value="" style="edgeStyle=entityRelationEdgeStyle;fontSize=12;html=1;endArrow=ERoneToMany;rounded=0;exitX=1.004;exitY=0.206;exitDx=0;exitDy=0;entryX=0;entryY=0.25;entryDx=0;entryDy=0;exitPerimeter=0;" edge="1" parent="1" source="Olhvi0J14PPZ46Zdt4Ib-2" target="Olhvi0J14PPZ46Zdt4Ib-15">
          <mxGeometry width="100" height="100" relative="1" as="geometry">
            <mxPoint x="710" y="-10" as="sourcePoint" />
            <mxPoint x="810" y="-110" as="targetPoint" />
          </mxGeometry>
        </mxCell>
        <mxCell id="Olhvi0J14PPZ46Zdt4Ib-18" value="" style="edgeStyle=entityRelationEdgeStyle;fontSize=12;html=1;endArrow=ERoneToMany;rounded=0;entryX=0;entryY=0.5;entryDx=0;entryDy=0;exitX=1.02;exitY=0.471;exitDx=0;exitDy=0;exitPerimeter=0;" edge="1" parent="1" source="Olhvi0J14PPZ46Zdt4Ib-1" target="Olhvi0J14PPZ46Zdt4Ib-5">
          <mxGeometry width="100" height="100" relative="1" as="geometry">
            <mxPoint x="375" y="260" as="sourcePoint" />
            <mxPoint x="475" y="160" as="targetPoint" />
          </mxGeometry>
        </mxCell>
        <mxCell id="Olhvi0J14PPZ46Zdt4Ib-19" value="&lt;div style=&quot;box-sizing:border-box;width:100%;background:#e4e4e4;padding:2px;&quot;&gt;TaskStatus&lt;/div&gt;&lt;table style=&quot;width:100%;font-size:1em;&quot; cellpadding=&quot;2&quot; cellspacing=&quot;0&quot;&gt;&lt;tbody&gt;&lt;tr&gt;&lt;td&gt;PK&lt;/td&gt;&lt;td&gt;Id [guid] [not null]&lt;/td&gt;&lt;/tr&gt;&lt;tr&gt;&lt;td&gt;&lt;br&gt;&lt;/td&gt;&lt;td&gt;Title [string] [not null]&lt;br&gt;Staging [boolean] [not null]&lt;br&gt;Description [string] [not null]&lt;/td&gt;&lt;/tr&gt;&lt;tr&gt;&lt;td&gt;&lt;/td&gt;&lt;td&gt;&lt;br&gt;&lt;/td&gt;&lt;/tr&gt;&lt;/tbody&gt;&lt;/table&gt;" style="verticalAlign=top;align=left;overflow=fill;html=1;whiteSpace=wrap;" vertex="1" parent="1">
          <mxGeometry x="-500" y="70" width="180" height="90" as="geometry" />
        </mxCell>
        <mxCell id="Olhvi0J14PPZ46Zdt4Ib-20" value="" style="edgeStyle=entityRelationEdgeStyle;fontSize=12;html=1;endArrow=ERoneToMany;rounded=0;entryX=-0.019;entryY=0.822;entryDx=0;entryDy=0;entryPerimeter=0;exitX=1;exitY=0.25;exitDx=0;exitDy=0;" edge="1" parent="1" source="Olhvi0J14PPZ46Zdt4Ib-19" target="Olhvi0J14PPZ46Zdt4Ib-4">
          <mxGeometry width="100" height="100" relative="1" as="geometry">
            <mxPoint x="-240" y="530" as="sourcePoint" />
            <mxPoint x="-140" y="430" as="targetPoint" />
          </mxGeometry>
        </mxCell>
        <mxCell id="Olhvi0J14PPZ46Zdt4Ib-21" value="" style="edgeStyle=entityRelationEdgeStyle;fontSize=12;html=1;endArrow=ERoneToMany;rounded=0;exitX=1;exitY=0.25;exitDx=0;exitDy=0;entryX=-0.017;entryY=0.743;entryDx=0;entryDy=0;entryPerimeter=0;" edge="1" parent="1" source="Olhvi0J14PPZ46Zdt4Ib-3" target="Olhvi0J14PPZ46Zdt4Ib-1">
          <mxGeometry width="100" height="100" relative="1" as="geometry">
            <mxPoint x="70" y="536" as="sourcePoint" />
            <mxPoint x="141" y="360" as="targetPoint" />
            <Array as="points">
              <mxPoint x="495" y="533" />
            </Array>
          </mxGeometry>
        </mxCell>
        <mxCell id="Olhvi0J14PPZ46Zdt4Ib-22" value="&lt;div style=&quot;box-sizing:border-box;width:100%;background:#e4e4e4;padding:2px;&quot;&gt;TaskComment&lt;/div&gt;&lt;table style=&quot;width:100%;font-size:1em;&quot; cellpadding=&quot;2&quot; cellspacing=&quot;0&quot;&gt;&lt;tbody&gt;&lt;tr&gt;&lt;td&gt;PK&lt;/td&gt;&lt;td&gt;Id [guid] [not null]&lt;/td&gt;&lt;/tr&gt;&lt;tr&gt;&lt;td&gt;FK1&lt;/td&gt;&lt;td&gt;TaskId [guid] [not null]&lt;/td&gt;&lt;/tr&gt;&lt;tr&gt;&lt;td&gt;FK2&lt;/td&gt;&lt;td&gt;AuthorId [guid] [not null]&lt;/td&gt;&lt;/tr&gt;&lt;/tbody&gt;&lt;/table&gt;&lt;span style=&quot;white-space: pre;&quot;&gt;&lt;span style=&quot;white-space: pre;&quot;&gt;&#x9; &lt;/span&gt;Content [string] [not null]&lt;br&gt;&lt;/span&gt;" style="verticalAlign=top;align=left;overflow=fill;html=1;whiteSpace=wrap;" vertex="1" parent="1">
          <mxGeometry x="1040" y="-50" width="180" height="130" as="geometry" />
        </mxCell>
        <mxCell id="Olhvi0J14PPZ46Zdt4Ib-23" value="" style="edgeStyle=entityRelationEdgeStyle;fontSize=12;html=1;endArrow=ERoneToMany;rounded=0;entryX=-0.005;entryY=0.354;entryDx=0;entryDy=0;entryPerimeter=0;exitX=1.007;exitY=0.195;exitDx=0;exitDy=0;exitPerimeter=0;" edge="1" parent="1" source="Olhvi0J14PPZ46Zdt4Ib-4" target="Olhvi0J14PPZ46Zdt4Ib-22">
          <mxGeometry width="100" height="100" relative="1" as="geometry">
            <mxPoint x="80" y="410" as="sourcePoint" />
            <mxPoint x="180" y="310" as="targetPoint" />
          </mxGeometry>
        </mxCell>
        <mxCell id="Olhvi0J14PPZ46Zdt4Ib-24" value="" style="edgeStyle=entityRelationEdgeStyle;fontSize=12;html=1;endArrow=ERoneToMany;rounded=0;entryX=0;entryY=0.5;entryDx=0;entryDy=0;exitX=1.013;exitY=0.238;exitDx=0;exitDy=0;exitPerimeter=0;" edge="1" parent="1" source="Olhvi0J14PPZ46Zdt4Ib-2" target="Olhvi0J14PPZ46Zdt4Ib-22">
          <mxGeometry width="100" height="100" relative="1" as="geometry">
            <mxPoint x="670" y="381" as="sourcePoint" />
            <mxPoint x="1339" y="547" as="targetPoint" />
          </mxGeometry>
        </mxCell>
        <mxCell id="Olhvi0J14PPZ46Zdt4Ib-25" value="&lt;div style=&quot;box-sizing:border-box;width:100%;background:#e4e4e4;padding:2px;&quot;&gt;Role&lt;/div&gt;&lt;table style=&quot;width:100%;font-size:1em;&quot; cellpadding=&quot;2&quot; cellspacing=&quot;0&quot;&gt;&lt;tbody&gt;&lt;tr&gt;&lt;td&gt;PK&lt;/td&gt;&lt;td&gt;Id [guid] [not null]&lt;/td&gt;&lt;/tr&gt;&lt;tr&gt;&lt;td&gt;&lt;br&gt;&lt;/td&gt;&lt;td&gt;Title [string] [not null]&lt;br&gt;Description [string] [not null]&lt;/td&gt;&lt;/tr&gt;&lt;tr&gt;&lt;td&gt;&lt;/td&gt;&lt;td&gt;&lt;br&gt;&lt;/td&gt;&lt;/tr&gt;&lt;/tbody&gt;&lt;/table&gt;" style="verticalAlign=top;align=left;overflow=fill;html=1;whiteSpace=wrap;" vertex="1" parent="1">
          <mxGeometry x="460" y="240" width="180" height="90" as="geometry" />
        </mxCell>
        <mxCell id="Olhvi0J14PPZ46Zdt4Ib-26" value="" style="edgeStyle=entityRelationEdgeStyle;fontSize=12;html=1;endArrow=ERoneToMany;rounded=0;entryX=-0.016;entryY=0.665;entryDx=0;entryDy=0;entryPerimeter=0;exitX=1.015;exitY=0.396;exitDx=0;exitDy=0;exitPerimeter=0;" edge="1" parent="1" source="Olhvi0J14PPZ46Zdt4Ib-25" target="Olhvi0J14PPZ46Zdt4Ib-2">
          <mxGeometry width="100" height="100" relative="1" as="geometry">
            <mxPoint x="250" y="716" as="sourcePoint" />
            <mxPoint x="392" y="680" as="targetPoint" />
          </mxGeometry>
        </mxCell>
        <mxCell id="Olhvi0J14PPZ46Zdt4Ib-27" value="&lt;div style=&quot;box-sizing:border-box;width:100%;background:#e4e4e4;padding:2px;&quot;&gt;Financial Report&lt;br&gt;&lt;/div&gt;&lt;table style=&quot;width:100%;font-size:1em;&quot; cellpadding=&quot;2&quot; cellspacing=&quot;0&quot;&gt;&lt;tbody&gt;&lt;tr&gt;&lt;td&gt;PK&lt;/td&gt;&lt;td&gt;Id [guid] [not null]&lt;/td&gt;&lt;/tr&gt;&lt;tr&gt;&lt;td&gt;&lt;br&gt;&lt;br&gt;FK&lt;/td&gt;&lt;td&gt;Value [decimal] [not null]&lt;br&gt;Additional Info[string] [not null]&lt;br&gt;ProjectId [guid] [not null]&lt;/td&gt;&lt;/tr&gt;&lt;tr&gt;&lt;td&gt;&lt;/td&gt;&lt;td&gt;&lt;br&gt;&lt;/td&gt;&lt;/tr&gt;&lt;/tbody&gt;&lt;/table&gt;" style="verticalAlign=top;align=left;overflow=fill;html=1;whiteSpace=wrap;" vertex="1" parent="1">
          <mxGeometry x="-200" y="310" width="200" height="90" as="geometry" />
        </mxCell>
        <mxCell id="Olhvi0J14PPZ46Zdt4Ib-28" value="" style="edgeStyle=entityRelationEdgeStyle;fontSize=12;html=1;endArrow=ERmandOne;startArrow=ERmandOne;rounded=0;exitX=1.015;exitY=0.815;exitDx=0;exitDy=0;exitPerimeter=0;entryX=-0.005;entryY=0.87;entryDx=0;entryDy=0;entryPerimeter=0;" edge="1" parent="1" source="Olhvi0J14PPZ46Zdt4Ib-27" target="Olhvi0J14PPZ46Zdt4Ib-1">
          <mxGeometry width="100" height="100" relative="1" as="geometry">
            <mxPoint x="220" y="110" as="sourcePoint" />
            <mxPoint x="123" y="230" as="targetPoint" />
            <Array as="points">
              <mxPoint x="50" y="300" />
              <mxPoint x="70" y="300" />
            </Array>
          </mxGeometry>
        </mxCell>
        <mxCell id="Olhvi0J14PPZ46Zdt4Ib-1" value="&lt;div style=&quot;box-sizing:border-box;width:100%;background:#e4e4e4;padding:2px;&quot;&gt;Project&lt;/div&gt;&lt;table style=&quot;width:100%;font-size:1em;&quot; cellpadding=&quot;2&quot; cellspacing=&quot;0&quot;&gt;&lt;tbody&gt;&lt;tr&gt;&lt;td&gt;PK1&lt;/td&gt;&lt;td&gt;Id [guid] [not null]&lt;/td&gt;&lt;/tr&gt;&lt;tr&gt;&lt;td&gt;PK2&lt;/td&gt;&lt;td&gt;Project Manager [guid] [not null] [unique]&lt;/td&gt;&lt;/tr&gt;&lt;tr&gt;&lt;td&gt;&lt;br&gt;&lt;br&gt;FK2&lt;br&gt;FK3&lt;/td&gt;&lt;td&gt;Title [string] [null]&lt;br&gt;Description [string] [null]&lt;br&gt;ProjectStatusId [guid] [not null]&lt;br&gt;FinancialReport [guid] [unique] [null]&lt;/td&gt;&lt;/tr&gt;&lt;/tbody&gt;&lt;/table&gt;" style="verticalAlign=top;align=left;overflow=fill;html=1;whiteSpace=wrap;" vertex="1" parent="1">
          <mxGeometry x="100" y="170" width="230" height="130" as="geometry" />
        </mxCell>
        <mxCell id="Olhvi0J14PPZ46Zdt4Ib-33" value="" style="edgeStyle=entityRelationEdgeStyle;fontSize=12;html=1;endArrow=none;rounded=0;entryX=0;entryY=0.25;entryDx=0;entryDy=0;exitX=1;exitY=0.25;exitDx=0;exitDy=0;startArrow=ERoneToMany;startFill=0;endFill=0;" edge="1" parent="1" source="Olhvi0J14PPZ46Zdt4Ib-4">
          <mxGeometry width="100" height="100" relative="1" as="geometry">
            <mxPoint x="612" y="-40" as="sourcePoint" />
            <mxPoint x="700" y="139" as="targetPoint" />
            <Array as="points">
              <mxPoint x="660" y="236" />
              <mxPoint x="660" y="226" />
            </Array>
          </mxGeometry>
        </mxCell>
      </root>
    </mxGraphModel>
  </diagram>
</mxfile>
